<svg width="80" height="16" viewBox="0 0 80 16" fill="none" xmlns="http://www.w3.org/2000/svg">
<path fill-rule="evenodd" clip-rule="evenodd" d="M0.883077 16C0.395224 16 0 15.6045 0 15.1169V0.88307C0 0.395283 0.395286 0 0.883077 0H15.117C15.6047 0 16 0.395283 16 0.88307V15.1169C16 15.6046 15.6046 16 15.117 16H11.0398V9.80392H13.1195L13.4309 7.3892H11.0398V5.84755C11.0398 5.14843 11.2339 4.672 12.2364 4.672L13.5151 4.67144V2.5117C13.294 2.48227 12.5349 2.41652 11.6519 2.41652C9.80828 2.41652 8.54612 3.54184 8.54612 5.6084V7.3892H6.46104V9.80392H8.54612V16H0.883077Z" fill="#111212"/>
<path fill-rule="evenodd" clip-rule="evenodd" d="M48 3.53897C47.4121 3.8 46.7791 3.97653 46.1152 4.0554C46.7932 3.64977 47.3135 3.00657 47.5586 2.24038C46.9238 2.61596 46.2222 2.8892 45.4728 3.03568C44.8755 2.39812 44.0218 2 43.0771 2C41.2655 2 39.7957 3.46948 39.7957 5.28169C39.7957 5.53897 39.8239 5.78873 39.8803 6.02911C37.1521 5.89202 34.7338 4.58685 33.1138 2.59906C32.8311 3.08545 32.6696 3.64977 32.6696 4.2507C32.6696 5.38873 33.249 6.39343 34.13 6.98216C33.5928 6.9662 33.0856 6.8169 32.6424 6.57277V6.61315C32.6424 8.20376 33.774 9.53052 35.2766 9.83099C35.0015 9.90798 34.7113 9.94648 34.4117 9.94648C34.2004 9.94648 33.9938 9.92676 33.7937 9.88826C34.2117 11.1915 35.4231 12.1408 36.86 12.1662C35.7368 13.0469 34.3206 13.5718 32.7832 13.5718C32.5184 13.5718 32.2564 13.5568 32 13.5268C33.4528 14.4563 35.179 15 37.0319 15C43.0705 15 46.3715 10 46.3715 5.66291C46.3715 5.52019 46.3687 5.37746 46.3631 5.23756C47.0045 4.77465 47.5614 4.19718 48 3.53897Z" fill="#111212"/>
<path fill-rule="evenodd" clip-rule="evenodd" d="M80 8C80 3.58172 76.4183 0 72 0C67.5817 0 64 3.58172 64 8C64 12.4183 67.5817 16 72 16C76.4183 16 80 12.4183 80 8ZM72.4791 3.25871C73.0231 3.3266 73.4627 3.45764 73.945 3.69289C74.4194 3.925 74.723 4.14446 75.1246 4.54392C75.501 4.92127 75.7097 5.20706 75.9311 5.65072C76.2394 6.26966 76.415 7.00542 76.445 7.81539C76.4561 8.09168 76.4482 8.15328 76.3849 8.23221C76.2647 8.38538 76.0006 8.36009 75.9105 8.18801C75.882 8.13116 75.8741 8.08224 75.8647 7.86118C75.8488 7.52171 75.8251 7.30225 75.7777 7.04015C75.5911 6.0123 75.0977 5.19127 74.3103 4.60234C73.654 4.10973 72.9756 3.86973 72.087 3.81763C71.7865 3.80026 71.7344 3.78922 71.6664 3.73711C71.5398 3.63764 71.5335 3.40397 71.6553 3.29503C71.7296 3.22712 71.7818 3.21765 72.0395 3.22555C72.1739 3.23028 72.3716 3.24607 72.4791 3.25871ZM69.0541 3.52396C69.0051 3.49237 68.9197 3.44817 68.8643 3.42923C68.7504 3.38818 68.5718 3.37081 68.469 3.39292C68.3188 3.42449 68.1306 3.53659 67.7226 3.83975C67.4775 4.02289 67.1407 4.35131 67.0616 4.48393C66.8782 4.79813 66.8893 5.06497 67.1122 5.67915C67.4949 6.73228 68.0547 7.7475 68.79 8.72641C70.1973 10.6006 71.97 11.9647 74.1901 12.8789C74.4731 12.9957 74.5649 13.0147 74.7862 13.0036C75.0551 12.991 75.259 12.9073 75.5468 12.6895C75.8647 12.4479 76.3201 11.8826 76.4371 11.5811C76.5478 11.2953 76.5193 11.0364 76.3549 10.8343C76.2616 10.7221 75.5721 10.1601 75.2495 9.93427C75.0045 9.76375 74.6249 9.5285 74.451 9.4385C74.2217 9.32166 73.994 9.30114 73.771 9.37693C73.5955 9.43692 73.537 9.48902 73.2809 9.81113C73.148 9.97532 73.0262 10.1237 73.0105 10.138C72.993 10.1522 72.9377 10.1837 72.8855 10.2074C72.6784 10.3037 72.3953 10.2453 71.932 10.0148C71.5715 9.83636 71.2521 9.61061 70.8899 9.27903C70.5816 8.99797 70.2701 8.63168 70.0961 8.34591C69.8716 7.97802 69.7008 7.49961 69.6992 7.23594C69.6992 7.12226 69.7451 6.96122 69.802 6.87911C69.8241 6.84595 69.9649 6.72121 70.1151 6.59965C70.4899 6.29808 70.5737 6.20334 70.6243 6.02334C70.6733 5.85598 70.6211 5.6302 70.4646 5.32548C70.191 4.7918 69.3545 3.72291 69.0541 3.52396ZM72.5882 4.4034C73.5481 4.54392 74.2913 4.98918 74.7783 5.7123C75.0519 6.11966 75.2227 6.59806 75.2812 7.1112C75.3017 7.29909 75.3017 7.64172 75.2796 7.69856C75.259 7.75223 75.1926 7.82487 75.1357 7.85485C75.074 7.88644 74.9428 7.88329 74.87 7.84539C74.7483 7.78382 74.7119 7.68592 74.7119 7.42067C74.7119 7.01174 74.606 6.5807 74.4225 6.24597C74.2138 5.86388 73.9102 5.5481 73.5402 5.32862C73.2224 5.13916 72.7527 4.99864 72.3242 4.96391C72.1692 4.95127 72.0838 4.9197 72.0253 4.85181C71.9352 4.74917 71.9257 4.61023 72.0016 4.49498C72.0838 4.36709 72.2103 4.34656 72.5882 4.4034ZM73.6793 5.97124C73.4754 5.7802 73.2366 5.66178 72.925 5.59546C72.8602 5.58125 72.7385 5.56704 72.6562 5.5623C72.5234 5.55441 72.4981 5.55757 72.438 5.58757C72.2783 5.66967 72.234 5.8923 72.3495 6.02966C72.4127 6.10386 72.4712 6.12596 72.6657 6.14965C73.08 6.20018 73.3251 6.35491 73.4643 6.65332C73.5291 6.79385 73.5671 6.94542 73.5876 7.16173C73.605 7.32435 73.6287 7.38435 73.7046 7.44119C73.809 7.52171 73.9814 7.51855 74.0746 7.4333C74.1743 7.34172 74.1917 7.2312 74.149 6.95016C74.0857 6.51911 73.9418 6.21912 73.6793 5.97124Z" fill="#111212"/>
</svg>
